:FULLY-SPECIFIED
:FORCE-ALL-JOINTS-BE-3DOF
:DEGREES
1427
root -2.06857 13.7177 12.6947 6.65014 27.294 6.47837
lfemur 25.4554 -0.241589 -10.2471
ltibia 17.0977 -0 0
lfoot -15.824 34.6836 7.77928e-06
ltoes -23.6111 0 0
rfemur -65.6613 -21.4884 12.316
rtibia 74.2416 -0 0
rfoot -9.28148 10.306 -8.87561e-06
rtoes 4.77782 -0 0
lowerback 10.2052 2.01174 -10.1927
upperback -3.35995 1.19934 -0.923681
thorax -9.62523 1.16011 4.51545
lowerneck -0.0387488 -11.654 -10.4965
upperneck 6.15376 -16.0258 9.56778
head 3.45677 -7.9675 3.84746
lclavicle 4.14746e-14 2.51463e-14 0
lhumerus -73.6889 -18.0614 104.434
lradius 100.8 -0 0
lwrist 58.239 0 0
lhand -9.53422 41.4055 -0.000146826
lfingers 7.12502 -0 0
lthumb 16.4321 70.7295 -0.000143916
rclavicle 4.14746e-14 2.51463e-14 0
rhumerus 63.1255 -13.9844 -27.7872
rradius 82.053 -0 0
rwrist 26.768 0 0
rhand -43.8124 -31.25 7.60531e-07
rfingers 7.12502 -0 0
rthumb -16.6406 -60.5566 5.17122e-07
1428
root -2.06922 13.7177 12.6948 6.65523 27.291 6.47884
lfemur 25.4436 -0.23836 -10.2418
ltibia 17.1104 -0 0
lfoot -15.8212 34.6874 2.03626e-06
ltoes -23.5435 0 0
rfemur -65.6756 -21.4989 12.3288
rtibia 74.247 -0 0
rfoot -9.28225 10.3219 -2.32322e-06
rtoes 4.80888 -0 0
lowerback 10.2012 2.00994 -10.1929
upperback -3.36323 1.19722 -0.923501
thorax -9.62621 1.15928 4.5162
lowerneck -0.0419352 -11.6525 -10.4918
upperneck 6.15531 -16.0234 9.56272
head 3.4567 -7.96621 3.84528
lclavicle 4.14746e-14 2.51463e-14 0
lhumerus -73.6913 -18.0686 104.442
lradius 100.791 -0 0
lwrist 58.2408 0 0
lhand -9.52735 41.376 -3.84321e-05
lfingers 7.12502 -0 0
lthumb 16.4387 70.6994 -3.76706e-05
rclavicle 4.14746e-14 2.51463e-14 0
rhumerus 63.1187 -13.9857 -27.7847
rradius 82.0575 -0 0
rwrist 26.7563 0 0
rhand -43.8105 -31.2495 1.99072e-07
rfingers 7.12502 -0 0
rthumb -16.6388 -60.5562 1.35358e-07
1429
root -2.09385 13.7096 12.6875 6.657 27.29 6.479
lfemur 25.4395 -0.23724 -10.24
ltibia 17.1148 0 0
lfoot -15.8202 34.6887 0
ltoes -23.52 0 0
rfemur -65.6805 -21.5026 12.3332
rtibia 74.2489 0 0
rfoot -9.28252 10.3274 0
rtoes 4.81966 0 0
lowerback 10.1998 2.00932 -10.193
upperback -3.36437 1.19648 -0.923438
thorax -9.62655 1.15899 4.51646
lowerneck -0.0430407 -11.652 -10.4902
upperneck 6.15585 -16.0225 9.56096
head 3.45668 -7.96576 3.84452
lclavicle 1.01303e-14 -2.50966e-14 0
lhumerus -73.6921 -18.0711 104.445
lradius 100.788 0 0
lwrist 58.2415 0 0
lhand -9.52497 41.3658 0
lfingers 7.12502 0 0
lthumb 16.441 70.689 0
rclavicle 1.01303e-14 -2.50966e-14 0
rhumerus 63.1163 -13.9861 -27.7839
rradius 82.059 0 0
rwrist 26.7522 0 0
rhand -43.8098 -31.2493 0
rfingers 7.12502 0 0
rthumb -16.6381 -60.5561 0
1430
root -2.09687 13.7084 12.6864 6.67719 27.2823 6.50521
lfemur 25.3843 -0.222301 -10.2571
ltibia 17.1903 -0 0
lfoot -15.829 34.6971 -2.21004e-05
ltoes -23.6222 0 0
rfemur -65.7212 -21.5316 12.3421
rtibia 74.2557 -0 0
rfoot -9.24736 10.3524 0.000264977
rtoes 4.80138 -0 0
lowerback 10.2176 2.00751 -10.201
upperback -3.36413 1.1907 -0.923672
thorax -9.63612 1.15709 4.52153
lowerneck -0.0498302 -11.6457 -10.4888
upperneck 6.14458 -16.012 9.55361
head 3.45263 -7.96061 3.8429
lclavicle 1.01303e-14 -2.50966e-14 0
lhumerus -73.6872 -18.084 104.46
lradius 100.779 -0 0
lwrist 58.2434 0 0
lhand -9.53864 41.3331 0.000134391
lfingers 7.12502 -0 0
lthumb 16.4278 70.6574 0.000125177
rclavicle 1.01303e-14 -2.50966e-14 0
rhumerus 63.102 -13.9859 -27.7708
rradius 82.095 -0 0
rwrist 26.7209 0 0
rhand -43.7741 -31.2306 0.00020105
rfingers 7.12502 -0 0
rthumb -16.6038 -60.5401 0.00016504
1431
root -2.099 13.7071 12.6854 6.70317 27.2725 6.53894
lfemur 25.3131 -0.203093 -10.2791
ltibia 17.2875 -0 0
lfoot -15.8402 34.7079 -4.86643e-05
ltoes -23.7538 0 0
rfemur -65.7737 -21.5688 12.3535
rtibia 74.2645 -0 0
rfoot -9.2021 10.3847 0.00058347
rtoes 4.77784 -0 0
lowerback 10.2404 2.00519 -10.2113
upperback -3.36381 1.18325 -0.923974
thorax -9.64844 1.15464 4.52805
lowerneck -0.0585702 -11.6375 -10.4871
upperneck 6.13007 -15.9984 9.54414
head 3.44741 -7.95398 3.84082
lclavicle 1.01303e-14 -2.50966e-14 0
lhumerus -73.6809 -18.1006 104.479
lradius 100.767 -0 0
lwrist 58.2458 0 0
lhand -9.55625 41.2911 0.000295925
lfingers 7.12502 -0 0
lthumb 16.4109 70.6167 0.000275635
rclavicle 1.01303e-14 -2.50966e-14 0
rhumerus 63.0835 -13.9857 -27.754
rradius 82.1415 -0 0
rwrist 26.6806 0 0
rhand -43.7282 -31.2065 0.000442704
rfingers 7.12502 -0 0
rthumb -16.5595 -60.5196 0.000363412
1432
root -2.10033 13.7056 12.6844 6.73424 27.2606 6.57929
lfemur 25.228 -0.180148 -10.3054
ltibia 17.4038 -0 0
lfoot -15.8537 34.7208 -7.76549e-05
ltoes -23.9112 0 0
rfemur -65.8365 -21.6134 12.3673
rtibia 74.275 -0 0
rfoot -9.14795 10.4233 0.000931059
rtoes 4.74967 -0 0
lowerback 10.2678 2.00242 -10.2236
upperback -3.36343 1.17434 -0.924335
thorax -9.66319 1.15171 4.53586
lowerneck -0.0690263 -11.6277 -10.485
upperneck 6.1127 -15.9822 9.53281
head 3.44117 -7.94605 3.83833
lclavicle 1.01303e-14 -2.50966e-14 0
lhumerus -73.6733 -18.1205 104.501
lradius 100.753 -0 0
lwrist 58.2486 0 0
lhand -9.57731 41.2408 0.000472215
lfingers 7.12502 -0 0
lthumb 16.3906 70.5681 0.000439838
rclavicle 1.01303e-14 -2.50966e-14 0
rhumerus 63.0614 -13.9854 -27.7338
rradius 82.197 -0 0
rwrist 26.6324 0 0
rhand -43.6733 -31.1776 0.000706435
rfingers 7.12502 -0 0
rthumb -16.5066 -60.495 0.000579906
1433
root -2.10092 13.7041 12.6834 6.7697 27.2471 6.62535
lfemur 25.1308 -0.153997 -10.3356
ltibia 17.5365 -0 0
lfoot -15.8691 34.7356 -0.000107038
ltoes -24.0909 0 0
rfemur -65.9083 -21.6643 12.383
rtibia 74.287 -0 0
rfoot -9.08612 10.4673 0.00128335
rtoes 4.71752 -0 0
lowerback 10.2991 1.99927 -10.2376
upperback -3.363 1.16417 -0.924747
thorax -9.68002 1.14838 4.54478
lowerneck -0.0809642 -11.6166 -10.4826
upperneck 6.09287 -15.9637 9.51986
head 3.43405 -7.937 3.83548
lclavicle 1.01303e-14 -2.50966e-14 0
lhumerus -73.6647 -18.1432 104.527
lradius 100.736 -0 0
lwrist 58.2519 0 0
lhand -9.60136 41.1834 0.000650892
lfingers 7.12502 -0 0
lthumb 16.3674 70.5125 0.000606263
rclavicle 1.01303e-14 -2.50966e-14 0
rhumerus 63.0362 -13.9851 -27.7108
rradius 82.2604 -0 0
rwrist 26.5774 0 0
rhand -43.6106 -31.1447 0.000973737
rfingers 7.12502 -0 0
rthumb -16.4462 -60.4669 0.000799331
